<svg width="70" height="80" viewBox="0 0 70 80" fill="none" xmlns="http://www.w3.org/2000/svg">
<path d="M35.0469 42.6562L13.7969 63.9062C12.3281 65.375 9.95313 65.375 8.5 63.9062L4.96875 60.375C3.5 58.9062 3.5 56.5312 4.96875 55.0781L20.0312 40.0156L4.96875 24.9531C3.5 23.4844 3.5 21.1094 4.96875 19.6563L8.48438 16.0938C9.95312 14.625 12.3281 14.625 13.7812 16.0938L35.0312 37.3438C36.5156 38.8125 36.5156 41.1875 35.0469 42.6562ZM65.0469 37.3438L43.7969 16.0938C42.3281 14.625 39.9531 14.625 38.5 16.0938L34.9688 19.625C33.5 21.0937 33.5 23.4688 34.9688 24.9219L50.0312 39.9844L34.9688 55.0469C33.5 56.5156 33.5 58.8906 34.9688 60.3438L38.5 63.875C39.9688 65.3437 42.3437 65.3437 43.7969 63.875L65.0469 42.625C66.5156 41.1875 66.5156 38.8125 65.0469 37.3438Z" fill="white"/>
</svg>
