<svg width="44" height="44" viewBox="0 0 44 44" fill="none" xmlns="http://www.w3.org/2000/svg">
<path d="M14.3459 23.8333L23.3292 32.8167C23.6959 33.1833 23.8719 33.6111 23.8572 34.1C23.8425 34.5889 23.6513 35.0167 23.2834 35.3833C22.9167 35.7194 22.4889 35.8954 22 35.9113C21.5111 35.9272 21.0834 35.7512 20.7167 35.3833L8.6167 23.2833C8.43337 23.1 8.3032 22.9014 8.2262 22.6875C8.1492 22.4736 8.11193 22.2444 8.11437 22C8.11682 21.7556 8.15531 21.5264 8.22987 21.3125C8.30443 21.0986 8.43398 20.9 8.61854 20.7167L20.7185 8.61667C21.0546 8.28056 21.4751 8.1125 21.9799 8.1125C22.4846 8.1125 22.9198 8.28056 23.2852 8.61667C23.6519 8.98334 23.8352 9.41906 23.8352 9.92384C23.8352 10.4286 23.6519 10.8637 23.2852 11.2292L14.3459 20.1667H34.8334C35.3528 20.1667 35.7885 20.3427 36.1405 20.6947C36.4925 21.0467 36.6679 21.4818 36.6667 22C36.6655 22.5182 36.4895 22.9539 36.1387 23.3072C35.7879 23.6604 35.3528 23.8358 34.8334 23.8333H14.3459Z" fill="black"/>
</svg>
