<svg width="824" height="824" viewBox="0 0 824 824" fill="none" xmlns="http://www.w3.org/2000/svg">
<circle cx="412" cy="412" r="412" fill="black"/>
<mask id="mask0_30_265" style="mask-type:alpha" maskUnits="userSpaceOnUse" x="65" y="65" width="694" height="347">
<path d="M759 412C759 366.431 750.025 321.309 732.586 279.209C715.148 237.109 689.588 198.856 657.366 166.634C625.144 134.412 586.891 108.852 544.791 91.4138C502.691 73.9754 457.569 65 412 65C366.431 65 321.309 73.9754 279.209 91.4138C237.109 108.852 198.856 134.412 166.634 166.634C134.412 198.856 108.852 237.109 91.4138 279.209C73.9754 321.309 65 366.431 65 412L412 412H759Z" fill="#FF1C1C"/>
</mask>
<g mask="url(#mask0_30_265)">
<path d="M759 412C759 366.431 750.025 321.309 732.586 279.209C715.148 237.109 689.588 198.856 657.366 166.634C625.144 134.412 586.891 108.852 544.791 91.4138C502.691 73.9754 457.569 65 412 65C366.431 65 321.309 73.9754 279.209 91.4138C237.109 108.852 198.856 134.412 166.634 166.634C134.412 198.856 108.852 237.109 91.4138 279.209C73.9754 321.309 65 366.431 65 412L412 412H759Z" fill="#DF1818"/>
<path d="M669 382C669 332.492 659.249 283.468 640.303 237.728C621.357 191.989 593.587 150.428 558.579 115.421C523.572 80.4131 482.011 52.6434 436.272 33.6974C390.532 14.7514 341.508 5 292 5C242.492 5 193.468 14.7514 147.728 33.6974C101.989 52.6435 60.4284 80.4131 25.4207 115.421C-9.58696 150.428 -37.3566 191.989 -56.3026 237.728C-75.2486 283.468 -85 332.492 -85 382L292 382H669Z" fill="#FF1C1C"/>
</g>
<mask id="mask1_30_265" style="mask-type:alpha" maskUnits="userSpaceOnUse" x="65" y="412" width="694" height="347">
<path d="M759 412C759 457.569 750.025 502.691 732.586 544.791C715.148 586.891 689.588 625.144 657.366 657.366C625.144 689.588 586.891 715.148 544.791 732.586C502.691 750.025 457.569 759 412 759C366.431 759 321.309 750.025 279.209 732.586C237.109 715.148 198.856 689.588 166.634 657.366C134.412 625.144 108.852 586.891 91.4138 544.791C73.9754 502.691 65 457.569 65 412L412 412H759Z" fill="#FF1C1C"/>
</mask>
<g mask="url(#mask1_30_265)">
<path d="M759 412C759 457.569 750.025 502.691 732.586 544.791C715.148 586.891 689.588 625.144 657.366 657.366C625.144 689.588 586.891 715.148 544.791 732.586C502.691 750.025 457.569 759 412 759C366.431 759 321.309 750.025 279.209 732.586C237.109 715.148 198.856 689.588 166.634 657.366C134.412 625.144 108.852 586.891 91.4138 544.791C73.9754 502.691 65 457.569 65 412L412 412H759Z" fill="#DFDFDF"/>
<path d="M669 442C669 491.508 659.249 540.532 640.303 586.272C621.357 632.011 593.587 673.572 558.579 708.579C523.572 743.587 482.011 771.357 436.272 790.303C390.532 809.249 341.508 819 292 819C242.492 819 193.468 809.249 147.728 790.303C101.989 771.357 60.4284 743.587 25.4207 708.579C-9.58696 673.572 -37.3566 632.011 -56.3026 586.272C-75.2486 540.532 -85 491.508 -85 442L292 442H669Z" fill="white"/>
</g>
<rect x="52" y="384" width="719" height="57" fill="black"/>
<circle cx="412" cy="412" r="138" fill="black"/>
<circle cx="412" cy="412" r="79" fill="white"/>
</svg>
